<svg width="32" height="32" viewBox="0 0 32 32" fill="none" xmlns="http://www.w3.org/2000/svg">
<path d="M31.25 31.03H30.825V22.32H31.01C31.28 22.32 31.495 22.105 31.495 21.835V19.695C31.495 19.425 31.28 19.21 31.01 19.21H23.395V18.185H24.34C24.53 18.185 24.705 18.075 24.78 17.9C24.8194 17.8151 24.8328 17.7204 24.8186 17.6279C24.8044 17.5354 24.7631 17.4491 24.7 17.38L23.11 15.58L21.04 0.42C21.0235 0.304138 20.966 0.198039 20.8779 0.120973C20.7898 0.0439063 20.677 0.00098362 20.56 0L11.44 0C11.2 0 10.99 0.18 10.96 0.42L8.89001 15.58L7.30001 17.38C7.17501 17.525 7.14501 17.725 7.22001 17.9C7.29501 18.075 7.47001 18.185 7.66001 18.185H8.60501V19.21H0.995015C0.725015 19.21 0.510015 19.425 0.510015 19.695V21.835C0.510015 22.105 0.725015 22.32 0.995015 22.32H1.18001V31.03H0.750015C0.621385 31.03 0.498023 31.0811 0.407068 31.1721C0.316113 31.263 0.265015 31.3864 0.265015 31.515C0.265015 31.6436 0.316113 31.767 0.407068 31.8579C0.498023 31.9489 0.621385 32 0.750015 32H31.25C31.3786 32 31.502 31.9489 31.593 31.8579C31.6839 31.767 31.735 31.6436 31.735 31.515C31.735 31.3864 31.6839 31.263 31.593 31.1721C31.502 31.0811 31.3786 31.03 31.25 31.03ZM8.60501 31.03H2.15001V22.32H8.60501V31.03ZM8.60501 21.35H1.48001V20.18H8.61001V21.35H8.60501ZM22.095 15.305H19.28L19.065 12.59H21.725L22.095 15.305ZM21.59 11.615H18.985L18.75 8.62H21.185L21.59 11.615ZM20.64 4.66L21.05 7.655H18.67L18.435 4.66H20.64ZM20.135 0.97L20.505 3.69H18.355L18.14 0.97H20.135ZM17.17 0.97L18.305 15.305H13.695L14.83 0.97H17.17ZM11.865 0.97H13.86L13.645 3.69H11.495L11.865 0.97ZM11.36 4.66H13.565L13.33 7.655H10.95L11.36 4.66ZM10.82 8.625H13.25L13.015 11.62H10.41L10.82 8.625ZM10.28 12.585H12.94L12.725 15.3H9.91001L10.28 12.585ZM18.51 31.03H13.49V24.525C13.49 23.14 14.615 22.015 16 22.015C17.385 22.015 18.51 23.14 18.51 24.525V31.03ZM22.425 19.69V31.025H19.48V24.525C19.48 22.605 17.92 21.045 16 21.045C14.08 21.045 12.52 22.605 12.52 24.525V31.03H9.57501V18.19H22.42V19.69H22.425ZM8.74001 17.215L9.57001 16.275H22.435L23.265 17.215H8.74001ZM29.85 31.03H23.395V22.32H29.85V31.03ZM30.52 21.35H23.395V20.18H30.525V21.35H30.52Z" fill="#0C0C0B"/>
</svg>
