<svg width="68" height="67" viewBox="0 0 48 47" fill="none" xmlns="http://www.w3.org/2000/svg">
<path d="M24.0001 42.1042C26.704 42.1042 28.8959 39.9122 28.8959 37.2083C28.8959 34.5044 26.704 32.3125 24.0001 32.3125C21.2962 32.3125 19.1042 34.5044 19.1042 37.2083C19.1042 39.9122 21.2962 42.1042 24.0001 42.1042Z" fill="white"/>
<path d="M23.9999 34.6742C30.1713 34.6742 35.1742 29.6714 35.1742 23.5C35.1742 17.3286 30.1713 12.3257 23.9999 12.3257C17.8286 12.3257 12.8257 17.3286 12.8257 23.5C12.8257 29.6714 17.8286 34.6742 23.9999 34.6742Z" fill="white"/>
<path d="M24.0001 14.6875C26.704 14.6875 28.8959 12.4956 28.8959 9.79168C28.8959 7.08778 26.704 4.89584 24.0001 4.89584C21.2962 4.89584 19.1042 7.08778 19.1042 9.79168C19.1042 12.4956 21.2962 14.6875 24.0001 14.6875Z" fill="white"/>
<path d="M30.8541 40.2673C33.558 40.2673 35.7499 38.0753 35.7499 35.3714C35.7499 32.6675 33.558 30.4756 30.8541 30.4756C28.1502 30.4756 25.9583 32.6675 25.9583 35.3714C25.9583 38.0753 28.1502 40.2673 30.8541 40.2673Z" fill="white"/>
<path d="M17.1458 16.5244C19.8497 16.5244 22.0417 14.3325 22.0417 11.6286C22.0417 8.9247 19.8497 6.73276 17.1458 6.73276C14.4419 6.73276 12.25 8.9247 12.25 11.6286C12.25 14.3325 14.4419 16.5244 17.1458 16.5244Z" fill="white"/>
<path d="M35.8714 35.25C38.5753 35.25 40.7673 33.0581 40.7673 30.3542C40.7673 27.6503 38.5753 25.4583 35.8714 25.4583C33.1675 25.4583 30.9756 27.6503 30.9756 30.3542C30.9756 33.0581 33.1675 35.25 35.8714 35.25Z" fill="white"/>
<path d="M12.1285 21.5417C14.8324 21.5417 17.0243 19.3497 17.0243 16.6458C17.0243 13.9419 14.8324 11.75 12.1285 11.75C9.42461 11.75 7.23267 13.9419 7.23267 16.6458C7.23267 19.3497 9.42461 21.5417 12.1285 21.5417Z" fill="white"/>
<path d="M37.7083 28.3958C40.4122 28.3958 42.6042 26.2039 42.6042 23.5C42.6042 20.7961 40.4122 18.6042 37.7083 18.6042C35.0044 18.6042 32.8125 20.7961 32.8125 23.5C32.8125 26.2039 35.0044 28.3958 37.7083 28.3958Z" fill="white"/>
<path d="M10.2916 28.3958C12.9955 28.3958 15.1874 26.2039 15.1874 23.5C15.1874 20.7961 12.9955 18.6042 10.2916 18.6042C7.58769 18.6042 5.39575 20.7961 5.39575 23.5C5.39575 26.2039 7.58769 28.3958 10.2916 28.3958Z" fill="white"/>
<path d="M35.8714 21.5417C38.5753 21.5417 40.7673 19.3497 40.7673 16.6458C40.7673 13.9419 38.5753 11.75 35.8714 11.75C33.1675 11.75 30.9756 13.9419 30.9756 16.6458C30.9756 19.3497 33.1675 21.5417 35.8714 21.5417Z" fill="white"/>
<path d="M12.1285 35.25C14.8324 35.25 17.0243 33.0581 17.0243 30.3542C17.0243 27.6503 14.8324 25.4583 12.1285 25.4583C9.42461 25.4583 7.23267 27.6503 7.23267 30.3542C7.23267 33.0581 9.42461 35.25 12.1285 35.25Z" fill="white"/>
<path d="M30.8541 16.5244C33.558 16.5244 35.7499 14.3325 35.7499 11.6286C35.7499 8.9247 33.558 6.73276 30.8541 6.73276C28.1502 6.73276 25.9583 8.9247 25.9583 11.6286C25.9583 14.3325 28.1502 16.5244 30.8541 16.5244Z" fill="white"/>
<path d="M17.1458 40.2673C19.8497 40.2673 22.0417 38.0753 22.0417 35.3714C22.0417 32.6675 19.8497 30.4756 17.1458 30.4756C14.4419 30.4756 12.25 32.6675 12.25 35.3714C12.25 38.0753 14.4419 40.2673 17.1458 40.2673Z" fill="white"/>
<path d="M22.0418 31.1659L14.7822 23.9054L17.5513 21.1363L22.0418 25.6258L31.4281 16.2405L34.1971 19.0096L22.0418 31.1659Z" fill="#EC533D"/>
</svg>
